<svg width="368" height="298" viewBox="0 0 368 298" fill="none" xmlns="http://www.w3.org/2000/svg">
<path d="M161.604 3.50316L53.4924 111.615C52.3927 112.714 51.7742 114.226 51.7742 115.773V292.167C51.7742 294.022 53.2519 295.5 55.1075 295.5H231.502C233.082 295.5 234.56 294.881 235.66 293.782L343.771 185.67C344.527 184.914 344.905 183.815 344.733 182.749C337.757 139.106 317.413 97.1813 283.77 63.5383C250.127 29.8953 208.202 9.55135 164.525 2.54095C163.459 2.36913 162.394 2.74714 161.604 3.50316Z" fill="#45E0A8" stroke="white" stroke-width="2" stroke-miterlimit="10"/>
<path d="M263.255 114.02L171.673 122.371L168.923 15.3246C168.855 12.438 170.676 10.3417 173.013 10.651L260.196 22.6786C261.742 22.8848 263.014 24.9467 263.014 27.2835L263.255 114.02Z" fill="white" stroke="black" stroke-width="1.2" stroke-miterlimit="10" stroke-linecap="round" stroke-linejoin="round"/>
<path d="M263.083 36.3902L169.233 26.5962L168.958 15.3246C168.889 12.438 170.71 10.3417 173.047 10.651L260.23 22.6786C261.777 22.8848 263.048 24.9467 263.048 27.2835L263.083 36.3902Z" fill="black"/>
<path d="M182.326 19.9639C182.36 21.6477 181.295 22.8849 179.954 22.7474C178.614 22.5756 177.48 21.0979 177.411 19.3797C177.377 17.6614 178.442 16.4243 179.817 16.5961C181.157 16.768 182.291 18.28 182.326 19.9639Z" fill="white"/>
<path d="M190.436 20.926C190.47 22.5755 189.439 23.8127 188.133 23.6752C186.827 23.5378 185.728 22.0601 185.693 20.3762C185.659 18.6923 186.69 17.4552 187.996 17.627C189.302 17.7988 190.401 19.2765 190.436 20.926Z" fill="#45E0A8"/>
<path d="M198.271 21.8883C198.305 23.5378 197.309 24.7406 196.037 24.5687C194.766 24.4313 193.7 22.9536 193.7 21.3041C193.666 19.6546 194.663 18.4518 195.934 18.6236C197.206 18.7955 198.236 20.2731 198.271 21.8883Z" fill="#45E0A8"/>
<path d="M215.831 50.9607L217.103 141.752L86.0357 160.619L79.1628 16.1149C78.991 12.163 81.7401 9.31073 85.2797 9.7231L211.604 24.5687C213.735 24.8092 215.488 27.4553 215.556 30.4794L215.728 42.2321" fill="white"/>
<path d="M215.831 50.9607L217.103 141.752L86.0357 160.619L79.1628 16.1149C78.991 12.163 81.7401 9.31073 85.2797 9.7231L211.604 24.5687C213.735 24.8092 215.488 27.4553 215.556 30.4794L215.728 42.2321" stroke="#45E0A8" stroke-width="1.2" stroke-miterlimit="10" stroke-linecap="round" stroke-linejoin="round"/>
<path d="M215.591 42.4039L79.8844 31.476L79.1628 16.1149C78.991 12.163 81.7401 9.31073 85.2797 9.7231L211.604 24.5686C213.735 24.8092 215.419 27.6615 215.453 30.6512L215.591 42.4039Z" fill="#45E0A8" stroke="#45E0A8" stroke-width="1.2" stroke-miterlimit="10" stroke-linecap="round" stroke-linejoin="round"/>
<path d="M99.5067 22.2319C99.6098 24.4999 98.0634 26.2182 96.0359 26.0464C94.0084 25.8745 92.2558 23.847 92.1527 21.5102C92.0496 19.2078 93.6303 17.4895 95.6922 17.6957C97.7197 17.9019 99.438 19.9294 99.5067 22.2319Z" fill="white"/>
<path d="M111.672 23.4003C111.775 25.634 110.263 27.2835 108.338 27.1117C106.38 26.9398 104.696 24.9467 104.627 22.6786C104.524 20.4105 106.07 18.761 108.029 18.9672C109.954 19.2078 111.569 21.1666 111.672 23.4003Z" fill="white"/>
<path d="M123.287 24.5687C123.356 26.768 121.947 28.3832 120.057 28.2113C118.167 28.0395 116.586 26.1151 116.483 23.8814C116.414 21.682 117.857 20.0325 119.748 20.2387C121.638 20.4449 123.218 22.3693 123.287 24.5687Z" fill="white"/>
<path d="M214.525 41.6824V48.7615" stroke="#45E0A8" stroke-width="1.2" stroke-miterlimit="10" stroke-linecap="round" stroke-linejoin="round"/>
<path d="M217.103 141.752L86.0357 160.619L79.1628 16.1149C78.991 12.163 81.7401 9.31073 85.2797 9.7231L211.604 24.5687C213.735 24.8092 215.488 27.4553 215.556 30.4794L217.103 141.752Z" stroke="white" stroke-width="1.2" stroke-miterlimit="10" stroke-linecap="round" stroke-linejoin="round"/>
<path d="M176.14 115.051L110.435 120.103C107.72 120.309 105.383 118.109 105.246 115.154L102.943 60.0674C102.806 57.0433 105.005 54.6378 107.789 54.7753L174.765 57.5244C176.896 57.6275 178.683 59.8269 178.717 62.4386L179.817 110.137C179.886 112.68 178.236 114.879 176.14 115.051Z" stroke="#45E0A8" stroke-width="1.2" stroke-miterlimit="10"/>
<path d="M125.04 95.2913L112.428 95.7037L112.29 91.8892L123.15 72.4044L128.064 72.4388L128.751 91.2363L132.359 91.1332L132.497 95.0164L128.923 95.1195L129.163 101.718L125.349 101.889L125.04 95.2913ZM124.902 91.3737L124.387 77.4904L116.552 91.5799L124.902 91.3737Z" fill="#45E0A8"/>
<path d="M135.246 86.975C134.937 77.6965 138.442 72.2325 143.94 72.2669C149.336 72.3356 153.013 77.6965 153.287 86.6313C153.562 95.6349 150.263 101.133 144.902 101.374C139.404 101.649 135.555 96.2878 135.246 86.975ZM138.992 86.9062C139.198 93.4699 141.088 97.7311 144.731 97.5937C148.305 97.4562 149.851 93.1606 149.645 86.7344C149.439 80.377 147.617 76.1501 144.043 76.1501C140.401 76.1157 138.786 80.4113 138.992 86.9062Z" fill="#45E0A8"/>
<path d="M166.965 93.9167L156.243 94.2603L156.14 90.7551L165.487 72.8168L169.645 72.8511L170.092 90.2053L173.15 90.1366L173.253 93.7105L170.195 93.8136L170.367 99.8961L167.136 100.034L166.965 93.9167ZM166.896 90.3084L166.552 77.5247L159.817 90.4802L166.896 90.3084Z" fill="#45E0A8"/>
<path d="M272.189 187.32L215.9 203.128L215.11 149.072C215.075 146.632 216.793 144.398 218.924 144.089L269.165 136.563C270.849 136.323 272.189 137.835 272.189 139.965V187.32V187.32Z" fill="#45E0A8" stroke="white" stroke-width="1.2" stroke-miterlimit="10" stroke-linecap="round" stroke-linejoin="round"/>
<path d="M272.189 143.539L215.178 153.196L215.11 149.106C215.075 146.667 216.793 144.433 218.924 144.124L269.165 136.598C270.849 136.357 272.189 137.869 272.189 140V143.539V143.539Z" fill="white" stroke="white" stroke-width="1.2" stroke-miterlimit="10" stroke-linecap="round" stroke-linejoin="round"/>
<path d="M222.67 147.732C222.67 148.625 222.051 149.416 221.295 149.553C220.505 149.691 219.886 149.072 219.886 148.179C219.886 147.285 220.505 146.46 221.261 146.357C222.017 146.22 222.635 146.838 222.67 147.732Z" fill="#45E0A8"/>
<path d="M227.343 146.976C227.343 147.835 226.759 148.66 226.003 148.763C225.247 148.9 224.629 148.282 224.594 147.388C224.594 146.495 225.178 145.704 225.934 145.601C226.725 145.498 227.343 146.117 227.343 146.976Z" fill="#45E0A8"/>
<path d="M231.948 146.254C231.948 147.113 231.364 147.904 230.642 148.041C229.886 148.178 229.302 147.56 229.268 146.701C229.268 145.842 229.852 145.051 230.608 144.914C231.33 144.776 231.948 145.361 231.948 146.254Z" fill="#45E0A8"/>
<path d="M235.591 233.747L140.435 268.524L137.377 180.275C137.308 177.904 139.164 175.602 141.569 175.155L231.948 158.144C233.563 157.835 234.904 159.175 234.904 161.134L235.591 233.747Z" fill="#45E0A8" stroke="white" stroke-width="1.2" stroke-miterlimit="10" stroke-linecap="round" stroke-linejoin="round"/>
<path d="M234.972 168.729L137.686 189.588L137.377 180.31C137.308 177.938 139.164 175.636 141.569 175.189L231.948 158.179C233.563 157.869 234.904 159.21 234.904 161.168L234.972 168.729Z" fill="white" stroke="white" stroke-width="1.2" stroke-miterlimit="10" stroke-linecap="round" stroke-linejoin="round"/>
<path d="M151.122 180.035C151.157 181.409 150.092 182.784 148.683 183.059C147.274 183.334 146.105 182.44 146.071 181.031C146.036 179.622 147.136 178.248 148.511 177.973C149.92 177.732 151.088 178.626 151.122 180.035Z" fill="#45E0A8"/>
<path d="M159.507 178.351C159.542 179.725 158.511 181.066 157.171 181.341C155.83 181.615 154.696 180.722 154.662 179.347C154.628 177.973 155.693 176.633 157.033 176.358C158.339 176.083 159.439 176.976 159.507 178.351Z" fill="#45E0A8"/>
<path d="M167.583 176.701C167.617 178.042 166.587 179.347 165.315 179.622C164.009 179.897 162.91 179.004 162.875 177.664C162.841 176.289 163.872 174.983 165.178 174.743C166.483 174.468 167.549 175.361 167.583 176.701Z" fill="#45E0A8"/>
<path d="M209.646 236.771L160.195 236.977C158.167 236.977 156.999 235.19 157.549 232.956L167.824 192.647C168.374 190.482 170.401 188.901 172.325 189.073L219.783 193.849C221.33 194.021 222.189 195.671 221.742 197.595L213.323 233.162C212.91 235.156 211.226 236.771 209.646 236.771Z" stroke="white" stroke-width="1.2" stroke-miterlimit="10"/>
<path d="M167.514 217.87L170.607 217.114C170.298 219.863 171.398 221.307 173.563 221.341C175.59 221.41 177.583 220.207 178.167 217.801C178.683 215.705 177.721 214.365 175.728 214.262L173.838 214.159L174.594 211.203L176.174 211.272C177.927 211.375 179.576 210.31 180.092 208.248C180.573 206.324 179.611 204.983 177.789 204.846C176.106 204.743 174.319 205.671 173.391 207.87L170.779 207.011C172.36 203.574 175.418 201.753 178.649 201.959C182.154 202.2 183.803 204.674 182.979 208.076C182.497 210.035 181.329 211.581 179.267 212.681C181.054 213.609 181.638 215.568 181.054 217.973C180.058 221.96 176.518 224.365 172.841 224.262C169.576 224.296 167.068 222.372 167.514 217.87Z" fill="white"/>
<path d="M185.247 213.574C186.93 206.77 190.573 202.956 194.559 203.231C198.477 203.506 200.023 207.595 198.443 214.227C196.827 220.929 193.254 224.846 189.302 224.777C185.247 224.64 183.563 220.482 185.247 213.574ZM187.996 213.712C186.793 218.592 187.274 221.822 189.955 221.925C192.601 221.994 194.594 218.901 195.762 214.09C196.896 209.416 196.415 206.22 193.838 206.049C191.226 205.842 189.199 208.935 187.996 213.712Z" fill="white"/>
<path d="M199.542 219.073L202.223 218.386C201.914 220.929 202.876 222.269 204.766 222.338C206.553 222.406 208.271 221.272 208.786 219.039C209.268 217.08 208.408 215.843 206.69 215.774L205.041 215.705L205.694 212.956L207.068 213.025C208.615 213.093 210.024 212.131 210.505 210.172C210.951 208.386 210.127 207.114 208.512 207.011C207.068 206.908 205.487 207.801 204.663 209.829L202.429 209.038C203.804 205.843 206.484 204.124 209.268 204.33C212.292 204.537 213.735 206.839 212.979 210.035C212.532 211.891 211.501 213.3 209.714 214.331C211.261 215.19 211.742 217.011 211.226 219.245C210.333 222.991 207.24 225.19 204.079 225.121C201.261 225.018 199.096 223.265 199.542 219.073Z" fill="white"/>
<path d="M168.511 210.344L30.7429 247.321L24.0418 141.099C23.87 138.213 26.6879 135.601 30.3649 135.292L162.257 123.264C164.525 123.058 166.38 124.707 166.449 126.975L168.511 210.344Z" fill="white" stroke="black" stroke-width="1.2" stroke-miterlimit="10" stroke-linecap="round" stroke-linejoin="round"/>
<path d="M166.621 135.704L24.7291 152.302L24.0075 141.065C23.8356 138.178 26.6535 135.567 30.3306 135.257L162.222 123.23C164.49 123.024 166.346 124.673 166.415 126.941L166.621 135.704Z" fill="black"/>
<path d="M40.3651 142.508C40.4338 144.192 39.0936 145.704 37.3066 145.945C35.5196 146.185 33.9732 144.983 33.9045 143.299C33.8358 141.615 35.2104 140.069 36.9973 139.862C38.7843 139.622 40.262 140.825 40.3651 142.508Z" fill="white"/>
<path d="M53.2518 141.168C53.3205 142.852 51.9803 144.364 50.1933 144.605C48.4064 144.845 46.86 143.642 46.7912 141.958C46.7225 140.275 48.0971 138.728 49.884 138.522C51.671 138.316 53.1487 139.484 53.2518 141.168Z" fill="#45E0A8"/>
<path d="M65.6231 139.897C65.6919 141.58 64.3516 143.092 62.5647 143.333C60.7777 143.574 59.2313 142.371 59.1626 140.687C59.0938 139.003 60.4684 137.457 62.2554 137.251C64.0424 137.044 65.52 138.213 65.6231 139.897Z" fill="#45E0A8"/>
<path d="M301.434 226.805L302.224 168.935L306.382 172.887L312.259 164.983L297.344 161.1C296.004 160.619 294.492 160.481 292.98 160.859C283.495 163.196 276.829 171.65 276.76 181.409L276.897 251.376L301.434 226.805Z" fill="#45E0A8"/>
<path d="M280.574 247.664L280.437 181.89C280.506 172.131 287.172 163.677 296.657 161.34C297.001 161.271 297.31 161.203 297.654 161.168L297.344 161.1C296.004 160.619 294.492 160.481 292.98 160.859C283.495 163.196 276.829 171.65 276.76 181.409L276.897 251.376L280.574 247.664Z" fill="white"/>
<path d="M317.482 210.757L317.997 172.234C318.032 169.725 316.932 167.388 314.939 165.808C312.98 164.227 310.437 163.677 307.997 164.296C298.272 166.701 291.399 175.361 291.33 185.396L291.021 237.217L317.482 210.757Z" fill="black"/>
<path d="M298.135 162.199C289.578 164.296 283.323 171.409 282.121 179.931L286.76 181.1C287.963 172.577 294.217 165.498 302.74 163.402C303.152 163.299 305.214 163.265 305.626 163.23C303.805 163.024 300.265 161.684 298.135 162.199Z" fill="black" stroke="black" stroke-width="1.2" stroke-miterlimit="10" stroke-linecap="round" stroke-linejoin="round"/>
<path d="M277.481 250.757L277.344 181.375C277.413 171.89 283.873 163.677 293.117 161.409C294.458 161.065 295.832 161.168 297.207 161.649L312.121 165.533C312.43 165.601 312.74 165.43 312.843 165.12C312.911 164.811 312.74 164.502 312.43 164.399L297.585 160.515C296.073 159.966 294.458 159.863 292.877 160.241C283.152 162.646 276.279 171.306 276.21 181.34L276.347 251.891L277.481 250.757Z" fill="black"/>
<path d="M301.846 163.677C300.162 164.158 297.413 165.155 294.664 167.388C291.296 170.103 289.372 173.265 288.616 174.949C295.42 142.989 302.499 111.03 309.303 79.0367L319.372 81.1674L301.846 163.677Z" fill="#45E0A8"/>
<path d="M303.839 104.673C298.925 127.388 293.942 150.103 289.097 172.784L289.578 173.162C290.506 171.615 291.983 169.725 294.011 167.938L307.276 106.7L303.839 104.673Z" fill="white"/>
<path d="M301.846 163.677C300.162 164.158 297.413 165.155 294.664 167.388C291.296 170.103 289.372 173.265 288.616 174.949C295.42 142.989 302.499 111.03 309.303 79.0367L319.372 81.1674L301.846 163.677Z" stroke="black" stroke-width="1.2" stroke-miterlimit="10" stroke-linecap="round" stroke-linejoin="round"/>
<path d="M316.039 64.26L320.815 63.1947L310.609 60.9953C304.011 59.5864 297.413 65.2566 296.416 73.1948L292.121 107.525L308.513 111.03L318.616 77.9371C320.128 72.8168 318.994 67.5934 316.039 64.26Z" fill="#45E0A8" stroke="black" stroke-width="1.2" stroke-miterlimit="10" stroke-linecap="round" stroke-linejoin="round"/>
<path d="M318.685 113.264L302.293 109.759L306.588 75.4285C307.585 67.4902 314.183 61.82 320.781 63.229C327.379 64.6379 331.09 72.5075 328.754 80.1708L318.685 113.264Z" fill="#45E0A8" stroke="black" stroke-width="1.2" stroke-miterlimit="10" stroke-linecap="round" stroke-linejoin="round"/>
<path d="M242.842 99.5868L238.478 97.1813L231.055 55.4282C230.574 52.7477 228.649 50.7889 226.725 50.9951L175.59 57.0433L172.566 53.5725L165.349 58.5553C163.7 59.5176 162.806 61.7169 163.253 64.1568L173.46 120.274C174.009 123.333 176.449 125.292 178.855 124.673L237.172 109.896C238.237 109.621 239.062 108.693 239.474 107.491L242.842 99.5868Z" fill="#45E0A8"/>
<path d="M172.566 53.5725L165.349 58.5554C163.7 59.5176 162.806 61.7169 163.253 64.1568L173.46 120.274L173.288 54.3629L172.566 53.5725Z" fill="white"/>
<path d="M242.842 99.5868L238.478 97.1813L231.055 55.4282C230.574 52.7477 228.649 50.7889 226.725 50.9951L175.59 57.0433L172.566 53.5725L165.349 58.5553C163.7 59.5176 162.806 61.7169 163.253 64.1568L173.46 120.274C174.009 123.333 176.449 125.292 178.855 124.673L237.172 109.896C238.237 109.621 239.062 108.693 239.474 107.491L242.842 99.5868Z" stroke="black" stroke-width="1.2" stroke-miterlimit="10" stroke-linecap="round" stroke-linejoin="round"/>
<path d="M240.918 98.5216L185.59 113.402L182.807 115.188L176.106 124.329C176.93 124.776 177.893 124.948 178.821 124.708L237.172 109.896C238.237 109.621 239.062 108.694 239.474 107.491L242.808 99.5869L240.918 98.5216Z" fill="black"/>
<path d="M240.677 101.752L185.659 115.704C183.391 116.288 181.089 114.432 180.573 111.546L170.951 58.5898C170.435 55.7032 171.913 53.1258 174.25 52.8509L230.814 46.1498C232.636 45.9436 234.457 47.7993 234.904 50.3079L243.082 96.391C243.529 98.934 242.464 101.305 240.677 101.752Z" fill="#45E0A8" stroke="black" stroke-width="1.2" stroke-miterlimit="10" stroke-linecap="round" stroke-linejoin="round"/>
<path d="M219.13 77.1124C220.367 84.0884 217.206 90.6521 211.914 91.7861C206.484 92.9545 200.951 88.006 199.645 80.7207C198.34 73.4353 201.81 66.803 207.274 65.9438C212.601 65.1191 217.893 70.1363 219.13 77.1124Z" fill="#45E0A8" stroke="black" stroke-width="1.2" stroke-miterlimit="10" stroke-linecap="round" stroke-linejoin="round"/>
<path d="M229.027 104.707L217.206 87.6967L218.649 83.298L209.371 87.1812L207.927 91.5799L218.821 107.319L229.027 104.707Z" fill="black"/>
<path d="M219.13 77.1124C220.367 84.0884 217.206 90.6521 211.914 91.7861C206.484 92.9545 200.951 88.006 199.645 80.7207C198.34 73.4353 201.81 66.803 207.274 65.9438C212.601 65.1191 217.893 70.1363 219.13 77.1124Z" fill="#45E0A8" stroke="black" stroke-width="1.2" stroke-miterlimit="10" stroke-linecap="round" stroke-linejoin="round"/>
<path d="M222.532 79.9302C221.192 87.3874 215.831 92.9201 210.436 92.3015C204.903 91.6486 201.467 84.81 202.841 77.0436C204.216 69.2428 209.886 63.7445 215.35 64.741C220.711 65.6689 223.873 72.4731 222.532 79.9302Z" fill="#45E0A8" stroke="black" stroke-width="1.2" stroke-miterlimit="10" stroke-linecap="round" stroke-linejoin="round"/>
<path d="M222.773 85.463C218.443 91.0644 211.604 93.2981 207.412 90.4459C203.116 87.5249 203.219 80.3426 207.755 74.5006C212.292 68.6586 219.336 66.528 223.46 69.7239C227.446 72.8511 227.103 79.8615 222.773 85.463Z" fill="#45E0A8" stroke="black" stroke-width="1.2" stroke-miterlimit="10" stroke-linecap="round" stroke-linejoin="round"/>
<path d="M301.227 78.8993C299.441 78.5213 297.825 78.6931 296.176 80.2395L268.169 105.91L221.02 77.1123C217.103 74.2944 209.749 83.298 215.247 86.7688L269.406 118.728L303.014 87.8341C306.21 84.3289 304.114 79.5179 301.227 78.8993Z" fill="#45E0A8" stroke="black" stroke-width="1.2" stroke-miterlimit="10" stroke-linecap="round" stroke-linejoin="round"/>
<path d="M268.787 123.195C274.804 123.195 279.681 118.318 279.681 112.302C279.681 106.285 274.804 101.408 268.787 101.408C262.771 101.408 257.894 106.285 257.894 112.302C257.894 118.318 262.771 123.195 268.787 123.195Z" fill="#45E0A8"/>
<path d="M272.705 119.484C266.691 119.484 261.811 114.604 261.811 108.59C261.811 106.494 262.43 104.535 263.461 102.852C260.162 104.742 257.928 108.281 257.928 112.336C257.928 118.35 262.808 123.23 268.822 123.23C272.739 123.23 276.176 121.168 278.1 118.041C276.485 118.934 274.664 119.484 272.705 119.484Z" fill="white"/>
<path d="M268.787 123.195C274.804 123.195 279.681 118.318 279.681 112.302C279.681 106.285 274.804 101.408 268.787 101.408C262.771 101.408 257.894 106.285 257.894 112.302C257.894 118.318 262.771 123.195 268.787 123.195Z" stroke="black" stroke-width="1.2" stroke-miterlimit="10" stroke-linecap="round" stroke-linejoin="round"/>
<path d="M311.503 118.35L304.63 110.24L312.843 111.992L311.503 118.35Z" fill="black"/>
<path d="M139.095 198.317L73.5957 223.953C70.6747 225.087 67.7537 224.056 67.1008 221.65L55.623 179.382C54.9357 176.804 56.8945 173.952 59.9873 173.024L129.06 152.508C131.466 151.787 133.768 153.058 134.284 155.361L142.394 192.818C142.806 194.949 141.363 197.423 139.095 198.317Z" stroke="#45E0A8" stroke-width="1.2" stroke-miterlimit="10"/>
<path d="M83.1147 206.014C78.5786 207.664 74.0768 207.217 72.0493 203.403L75.8981 201.066C77.1009 203.574 79.7813 203.815 82.3243 202.921C85.589 201.753 87.3416 199.176 86.6199 196.392C85.9326 193.643 83.2178 192.543 80.0906 193.609C78.0631 194.296 76.5167 195.602 75.8981 197.011L72.3242 197.354L71.4651 184.365L85.5546 179.828L86.3106 182.887L75.5545 186.426L75.9325 192.784C77.1009 191.753 78.4411 190.997 79.9875 190.447C85.2453 188.66 89.4722 190.585 90.5719 194.914C91.7059 199.348 88.8536 203.884 83.1147 206.014Z" fill="#45E0A8"/>
<path d="M93.4585 189.554C91.6372 182.234 94.352 176.667 100.057 174.846C105.624 173.059 110.228 176.117 111.912 183.231C113.596 190.31 111.053 195.808 105.624 197.801C100.022 199.794 95.2455 196.839 93.4585 189.554ZM97.3074 188.213C98.5789 193.368 101.156 196.117 104.868 194.777C108.51 193.471 109.404 189.554 108.201 184.468C106.998 179.45 104.455 176.667 100.778 177.87C96.9981 179.107 96.0359 183.127 97.3074 188.213Z" fill="#45E0A8"/>
<path d="M133.253 187.354L118.27 192.818L117.651 190.207L122.222 182.749C125.28 177.87 126.277 175.67 125.796 173.574C125.315 171.409 123.459 170.413 121.053 171.203C118.991 171.89 117.205 173.712 117.445 176.495L113.837 177.045C113.665 172.681 116.586 169.485 120.538 168.213C124.902 166.804 128.373 168.488 129.232 172.337C129.885 175.258 128.545 177.973 125.28 183.265L122.394 188.007L132.531 184.365L133.253 187.354Z" fill="#45E0A8"/>
</svg>
